<?xml version="1.0" standalone="no"?><!DOCTYPE svg PUBLIC "-//W3C//DTD SVG 1.1//EN" "http://www.w3.org/Graphics/SVG/1.1/DTD/svg11.dtd"><svg t="1747202229578" class="icon" viewBox="0 0 1024 1024" version="1.1" xmlns="http://www.w3.org/2000/svg" p-id="2693" xmlns:xlink="http://www.w3.org/1999/xlink" width="128" height="128"><path d="M885.252923 423.394462L513.28 323.884308 132.194462 426.013538 93.425231 413.538462l-4.519385 10.496v-17.004308l424.369231-113.723077 425.107692 113.723077v8.098461L885.297231 423.384615l-0.049231 0.009847zM113.152 652.356923l-24.246154 6.488615v-8.132923l24.246154 1.644308z" fill="#dbdbdb" p-id="2694"></path><path d="M152.950154 454.08L153.211077 443.076923l-65.782154-20.942769v-16.211692l423.507692 113.6v502.153846h-0.123077l-397.292307-106.215385c-15.507692-4.061538-26.092308-17.969231-26.092308-33.476923v-238.621538l29.538462 10.816v227.805538c0 2.176 1.624615 4.268308 4.184615 4.942769l360.246154 96.310154v-0.226461l11.214769 3.460923L497.821538 541.538462h-18.825846L152.950154 454.08z m357.986461 545.442462v7.384615-7.384615z" fill="#dbdbdb" p-id="2695"></path><path d="M108.352 442.368l-55.827692 174.813538c-0.964923 3.150769 0.669538 6.163692 3.426461 6.852924l0.502154 0.132923 355.780923 95.655384c2.121846 0.576 4.637538-0.423385 5.912616-2.387692a4.568615 4.568615 0 0 0 0.526769-1.107692l56.068923-175.68-366.390154-98.279385z m-59.569231 210.323692c-19.692308-4.923077-30.276923-25.353846-24.492307-44.184615l64.492307-201.969231 423.507693 113.6-65.476924 205.169231c-0.935385 2.953846-2.264615 5.710769-3.899076 8.221538-7.980308 12.283077-23.424 18.88-38.439385 14.793847L48.787692 652.691692z" fill="#dbdbdb" p-id="2696"></path><path d="M908.849231 664.123077l29.538461-11.062154v229.661539c0 15.507692-10.584615 29.415385-26.092307 33.476923l-401.476923 105.476923V519.645538l427.56923-112.861538v16.758154l-0.541538-11.864616-41.954462 22.060308-0.211692 14.867692-351.488 92.780308-0.192-16.482461h-23.694769l4.371692 462.867692 24.708923-6.212923-0.009846-0.551385 355.431385-93.380923c2.417231-0.635077 4.036923-2.727385 4.036923-4.903384V664.123077z" fill="#dbdbdb" p-id="2697"></path><path d="M598.680615 714.338462c0.945231 2.993231 4.002462 4.701538 6.784 3.938461l361.353847-94.892308 0.034461-0.009846c2.609231-0.679385 4.563692-4.199385 3.672615-7.099077l-52.214153-173.671384-371.987693 97.826461 52.356923 173.907693z m375.640616-62.385231l-361.353846 94.892307c-17.969231 4.923077-36.8-5.661538-42.461539-23.630769l-61.292308-203.569231 429.169231-112.861538 60.430769 200.984615c5.784615 18.830769-5.661538 39.261538-24.492307 44.184616z" fill="#dbdbdb" p-id="2698"></path><path d="M320.295385 42.968615H267.977846c-4.923077 0-8.123077-3.2-8.123077-8.123077 0-4.923077 3.2-8.123077 8.123077-8.123076H320.295385c4.923077 0 8.123077 3.2 8.123077 8.123076 0 4.8-3.2 8.123077-8.123077 8.123077z" fill="#dbdbdb" p-id="2699"></path><path d="M294.203077 69.060923c-4.923077 0-8.123077-3.2-8.123077-8.123077V8.507077c0-4.923077 3.2-8.123077 8.123077-8.123077 4.923077 0 8.123077 3.2 8.123077 8.123077v52.307692c0 4.184615-3.2 8.246154-8.123077 8.246154z m63.753846 181.538462c-4.923077 0-8.123077-3.2-8.123077-8.123077v-35.2c0-4.923077 3.2-8.123077 8.123077-8.123077 4.923077 0 8.123077 3.2 8.123077 8.123077v35.2c0.118154 4.061538-3.328 8.123077-8.123077 8.123077z m53.169231 24.492307c-4.923077 0-8.123077-3.2-8.123077-8.123077v-9.107692c0-4.923077 3.2-8.123077 8.123077-8.123077 4.923077 0 8.123077 3.2 8.123077 8.123077v8.984615c0.118154 4.923077-4.066462 8.246154-8.123077 8.246154z m489.6 22.03077c-2.343385 0-4.066462-0.861538-5.789539-2.338462-3.2-3.2-3.2-8.123077 0-11.446154l31.015385-31.015384c3.2-3.2 8.123077-3.2 11.446154 0 3.2 3.2 3.2 8.123077 0 11.446153l-31.015385 31.015385c-1.6 1.6-3.076923 2.338462-5.661538 2.338462z" fill="#dbdbdb" p-id="2700"></path><path d="M931.859692 297.122462c-2.461538 0-4.061538-0.861538-5.784615-2.338462l-30.892308-31.015385c-3.2-3.2-3.2-8.123077 0-11.446153 3.2-3.2 8.123077-3.2 11.446154 0l31.015385 31.015384c3.2 3.2 3.2 8.123077 0 11.446154-1.723077 1.6-3.323077 2.338462-5.784616 2.338462zM134.695385 334.784c-15.507692 0-27.815385-12.184615-27.815385-27.815385 0-15.507692 12.184615-27.815385 27.815385-27.815384 15.507692 0 27.815385 12.184615 27.815384 27.815384 0 15.630769-12.307692 27.815385-27.815384 27.815385z m0-39.261538c-6.646154 0-11.446154 4.923077-11.446154 11.446153 0 6.646154 4.923077 11.446154 11.446154 11.446154 6.646154 0 11.446154-4.923077 11.446153-11.446154 0-6.523077-4.923077-11.446154-11.446153-11.446153z" fill="#dbdbdb" p-id="2701"></path><path d="M47.556923 198.907077l-23.384615-23.384615a4.903385 4.903385 0 0 1 0-7.015385c1.969231-1.969231 5.041231-1.969231 7.010461 0l23.384616 23.384615c1.969231 1.969231 1.969231 5.046154 0 7.015385-1.969231 1.969231-5.169231 1.969231-7.015385 0z" fill="#dbdbdb" p-id="2702"></path><path d="M54.449231 175.522462l-23.384616 23.384615c-1.969231 1.969231-5.051077 1.969231-7.020307 0a4.903385 4.903385 0 0 1 0-7.015385l23.384615-23.384615c1.969231-1.969231 5.046154-1.969231 7.015385 0 1.969231 1.969231 1.969231 5.169231 0 7.015385zM857.156923 143.276308v-33.107693c0-2.707692 2.215385-4.923077 4.923077-4.923077s4.923077 2.215385 4.923077 4.923077v33.107693c0 2.707692-2.215385 4.923077-4.923077 4.923077s-4.923077-2.215385-4.923077-4.923077z" fill="#dbdbdb" p-id="2703"></path><path d="M878.572308 131.707077h-33.112616c-2.707692 0-4.923077-2.215385-4.923077-4.923077s2.215385-4.923077 4.923077-4.923077h33.107693c2.707692 0 4.923077 2.215385 4.923077 4.923077s-2.215385 4.923077-4.923077 4.923077z" fill="#dbdbdb" p-id="2704"></path></svg>