<?xml version="1.0" standalone="no"?><!DOCTYPE svg PUBLIC "-//W3C//DTD SVG 1.1//EN" "http://www.w3.org/Graphics/SVG/1.1/DTD/svg11.dtd"><svg t="1742969532343" class="icon" viewBox="0 0 1024 1024" version="1.1" xmlns="http://www.w3.org/2000/svg" p-id="3330" width="128" height="128" xmlns:xlink="http://www.w3.org/1999/xlink"><path d="M914.88256 416.68096h-299.52c-4.096 0-7.68 3.584-7.68 7.68v110.08c0 4.096 3.584 7.68 7.68 7.68h47.104c4.096 0 7.68-3.584 7.68-7.68v-54.784h58.88v314.88h-44.544c-4.096 0-7.68 3.584-7.68 7.68v47.104c0 4.096 3.584 7.68 7.68 7.68h161.28c4.096 0 7.68-3.584 7.68-7.68v-47.104c0-4.096-3.584-7.68-7.68-7.68h-45.056v-314.88h58.88v55.296c0 4.096 3.584 7.68 7.68 7.68h47.104c4.096 0 7.68-3.584 7.68-7.68v-110.08c0.512-4.608-3.072-8.192-7.168-8.192z" fill="#666666" p-id="3331"></path><path d="M654.78656 298.92096v-126.464c0-4.096-3.584-7.68-7.68-7.68h-536.064c-4.096 0-7.68 3.584-7.68 7.68v126.464c0 4.096 3.584 7.68 7.68 7.68h55.296c4.096 0 7.68-3.584 7.68-7.68v-62.976h165.376v551.424h-90.112c-4.096 0-7.68 3.584-7.68 7.68v55.296c0 4.096 3.584 7.68 7.68 7.68h260.096c4.096 0 7.68-3.584 7.68-7.68v-55.296c0-4.096-3.584-7.68-7.68-7.68h-91.136v-551.424h165.376v62.976c0 4.096 3.584 7.68 7.68 7.68h55.296c4.608 0 8.192-3.584 8.192-7.68z" fill="#666666" p-id="3332"></path></svg>