<?xml version="1.0" standalone="no"?><!DOCTYPE svg PUBLIC "-//W3C//DTD SVG 1.1//EN" "http://www.w3.org/Graphics/SVG/1.1/DTD/svg11.dtd"><svg t="1748503759342" class="icon" viewBox="0 0 1024 1024" version="1.1" xmlns="http://www.w3.org/2000/svg" p-id="15212" xmlns:xlink="http://www.w3.org/1999/xlink" width="128" height="128"><path d="M240 144a96.048 96.048 0 0 1 90.64 64.32l424.976 1.472c90.24 0.32 163.2 73.536 163.2 163.776 0 88.688-70.688 160.864-158.816 163.248l-4.48 0.064h-92.64a96 96 0 0 1-173.76 0H287.04a100.688 100.688 0 0 0-3.68 201.296l3.68 0.064h210.912l-62.512-67.2 46.88-43.6 137.12 147.456-138.016 137.056-45.088-45.424 64.736-64.288H287.04c-90.944 0-164.672-73.728-164.672-164.672 0-89.44 71.296-162.24 160.16-164.64l4.512-0.048h195.76a96.032 96.032 0 0 1 186.4 0h86.304a99.312 99.312 0 0 0 99.328-99.312c0-53.76-42.512-97.6-95.776-99.696l-3.648-0.08-424.976-1.472A96.032 96.032 0 0 1 144 240a96 96 0 0 1 96-96z m544 510.864L897.136 768 784 881.136 670.864 768 784 654.864z" p-id="15213" fill="#1ecfff"></path></svg>