<?xml version="1.0" standalone="no"?><!DOCTYPE svg PUBLIC "-//W3C//DTD SVG 1.1//EN" "http://www.w3.org/Graphics/SVG/1.1/DTD/svg11.dtd"><svg t="1748595185313" class="icon" viewBox="0 0 1024 1024" version="1.1" xmlns="http://www.w3.org/2000/svg" p-id="3576" xmlns:xlink="http://www.w3.org/1999/xlink" width="128" height="128"><path d="M887.029548 31.707836l106.074051 134.370411c7.071603 7.071603 0 14.143207-7.071603 21.21481L646.575141 448.962275c-7.071603 7.071603-155.585221-7.071603-155.585221-7.071603s28.286414-141.442014 35.358017-148.513618l339.456855-261.669218c7.081549-7.071603 14.153153-7.071603 21.224756 0z m0 0" fill="#1ecfff" p-id="3577"></path><path d="M625.370276 477.238743c-21.21481 0-162.656824-7.071603-162.656824-7.071604s35.358017-190.943238 42.429621-198.014841l339.456855-261.669218c21.21481-14.143207 42.42962-14.143207 56.572827 7.071604l106.074051 134.37041c14.143207 14.143207 7.071603 42.42962-7.071603 56.572827l-339.456856 261.669218c-7.061657 7.071603-7.061657 7.071603-35.348071 7.071604z m-106.074051-56.572827c49.501224 0 91.930844 7.071603 113.145655 7.071603l325.313648-254.587669-84.869186-113.1556-325.303703 254.587668c-7.071603 14.143207-14.143207 56.572827-28.286414 106.083998z m0 0" fill="#1ecfff" p-id="3578"></path><path d="M502.487492 140.835308l0.358055-72.605773H147.813262C67.628639 68.229535 2.611661 133.246513 2.611661 213.441082v665.357317c0 80.184623 65.016978 145.201601 145.201601 145.201601h653.422122c80.194569 0 145.211547-65.016978 145.211547-145.201601V471.340767l-72.605774-0.119352v407.58693c0 40.102257-32.503516 72.605773-72.605773 72.605774H147.813262c-40.102257 0-72.605773-32.503516-72.605774-72.605774V213.441082c0-40.102257 32.503516-72.605773 72.605774-72.605774h354.67423z m-62.659777-60.670577" fill="#1ecfff" p-id="3579"></path></svg>