<?xml version="1.0" standalone="no"?><!DOCTYPE svg PUBLIC "-//W3C//DTD SVG 1.1//EN" "http://www.w3.org/Graphics/SVG/1.1/DTD/svg11.dtd"><svg t="1749624651387" class="icon" viewBox="0 0 1024 1024" version="1.1" xmlns="http://www.w3.org/2000/svg" p-id="15248" xmlns:xlink="http://www.w3.org/1999/xlink" width="128" height="128"><path d="M531.359 98.748l2.586 2.566c15.713 15.587 15.815 40.96 0.228 56.673L138.105 556.17c-15.587 15.713-40.96 15.815-56.673 0.228l-2.586-2.566c-15.713-15.587-15.815-40.96-0.228-56.673L474.687 98.976c15.586-15.713 40.96-15.815 56.672-0.228z" fill="#1ecfff" p-id="15249"></path><path d="M944.064 553.221l-2.562 2.594c-15.567 15.76-40.909 15.863-56.602 0.228L487.216 158.77c-15.693-15.634-15.795-41.085-0.228-56.846l2.562-2.594c15.567-15.76 40.909-15.863 56.602-0.228l397.684 397.273c15.693 15.635 15.795 41.085 0.228 56.846z" fill="#1ecfff" p-id="15250"></path><path d="M510.575 63.243l63.143 63.382-63.243 51.458-63.243-51.498 63.343-63.342z" fill="#1ecfff" p-id="15251"></path><path d="M531.359 487.339l2.586 2.566c15.713 15.587 15.815 40.96 0.228 56.673L138.105 944.76c-15.587 15.713-40.96 15.815-56.673 0.228l-2.586-2.566c-15.713-15.587-15.815-40.96-0.228-56.673l396.069-398.183c15.586-15.712 40.96-15.814 56.672-0.227z" fill="#1ecfff" p-id="15252"></path><path d="M944.064 941.812l-2.562 2.594c-15.567 15.76-40.909 15.863-56.602 0.228L487.216 547.361c-15.693-15.634-15.795-41.085-0.228-56.846l2.562-2.594c15.567-15.76 40.909-15.863 56.602-0.228l397.684 397.274c15.693 15.634 15.795 41.084 0.228 56.845z" fill="#1ecfff" p-id="15253"></path><path d="M510.575 451.834l63.143 63.382-63.243 51.458-63.243-51.498 63.343-63.342z" fill="#1ecfff" p-id="15254"></path></svg>