<?xml version="1.0" standalone="no"?><!DOCTYPE svg PUBLIC "-//W3C//DTD SVG 1.1//EN" "http://www.w3.org/Graphics/SVG/1.1/DTD/svg11.dtd"><svg t="1747272509377" class="icon" viewBox="0 0 1024 1024" version="1.1" xmlns="http://www.w3.org/2000/svg" p-id="5227" xmlns:xlink="http://www.w3.org/1999/xlink" width="128" height="128"><path d="M340.623701 191.600832L127.733888 404.490644l42.577962 42.577963 159.66736-159.66736L489.64657 447.068607l212.889813-212.889813-42.577963-42.577962-159.66736 159.667359zM1021.871102 972.906445l-93.671518-93.671518c31.933472-42.577963 51.093555-95.800416 51.093555-153.280665 0-140.507277-114.960499-255.467775-255.467775-255.467776s-255.467775 114.960499-255.467776 255.467776 114.960499 255.467775 255.467776 255.467775c57.480249 0 110.702703-19.160083 153.280665-51.093555l93.671518 93.671518 51.093555-51.093555zM532.224532 723.825364c0-106.444906 85.155925-191.600832 191.600832-191.600832s191.600832 85.155925 191.600831 191.600832-85.155925 191.600832-191.600831 191.600831-191.600832-85.155925-191.600832-191.600831z" p-id="5228"></path><path d="M63.866944 63.866944h766.403326v319.334719h63.866944V85.155925c0-46.835759-38.320166-85.155925-85.155925-85.155925H85.155925C38.320166 0 0 38.320166 0 85.155925v787.692308c0 46.835759 38.320166 85.155925 85.155925 85.155925h298.045738v-63.866944H63.866944V63.866944z" p-id="5229"></path><path d="M596.091476 723.825364h63.866944c0-36.191268 27.675676-63.866944 63.866944-63.866944v-63.866944c-70.253638 0-127.733888 57.480249-127.733888 127.733888z" p-id="5230"></path></svg>