<?xml version="1.0" standalone="no"?><!DOCTYPE svg PUBLIC "-//W3C//DTD SVG 1.1//EN" "http://www.w3.org/Graphics/SVG/1.1/DTD/svg11.dtd"><svg t="1748485850264" class="icon" viewBox="0 0 1024 1024" version="1.1" xmlns="http://www.w3.org/2000/svg" p-id="1669" xmlns:xlink="http://www.w3.org/1999/xlink" width="128" height="128"><path d="M784 64a64 64 0 0 1 64 64v96H896a64 64 0 0 1 63.84 59.2L960 288v416a64 64 0 0 1-59.2 63.84L896 768h-48v128a64 64 0 0 1-59.2 63.84L784 960h-544a64 64 0 0 1-64-64v-128H128a64 64 0 0 1-63.84-59.2L64 704V288a64 64 0 0 1 59.2-63.84L128 224h48V128a64 64 0 0 1 59.2-63.84L240 64h544z m0 480h-544v352h544V544zM896 288H128v416h48v-160a64 64 0 0 1 59.2-63.84L240 480h544a64 64 0 0 1 64 64v160H896V288z m-576 64v64H192v-64h128z m464-224h-544v96h544V128z m-480 448h64v64h-64z m0 112h64v64h-64z m0 112h64v64h-64z" p-id="1670" fill="#1ecfff"></path></svg>