<?xml version="1.0" standalone="no"?><!DOCTYPE svg PUBLIC "-//W3C//DTD SVG 1.1//EN" "http://www.w3.org/Graphics/SVG/1.1/DTD/svg11.dtd"><svg t="1747272643413" class="icon" viewBox="0 0 1024 1024" version="1.1" xmlns="http://www.w3.org/2000/svg" p-id="6671" id="mx_n_1747272643415" xmlns:xlink="http://www.w3.org/1999/xlink" width="128" height="128"><path d="M989.184 1011.2H50.176c-14.336 0-25.6-11.264-25.6-25.6V81.92c0-14.336 11.264-25.6 25.6-25.6h939.008c14.336 0 25.6 11.264 25.6 25.6V985.6c0 14.336-11.264 25.6-25.6 25.6zM75.776 960h887.808V107.52H75.776V960z" fill="#1ecfff" p-id="6672"></path><path d="M987.648 307.2H48.64c-14.336 0-25.6-11.264-25.6-25.6V81.92c0-14.336 11.264-25.6 25.6-25.6h939.008c14.336 0 25.6 11.264 25.6 25.6V281.6c0 14.336-11.264 25.6-25.6 25.6zM74.24 256h887.808V107.52H74.24V256z m215.04 397.312c-6.144 0-11.776-2.048-16.896-6.144-10.752-9.216-11.776-25.6-2.56-36.352l141.312-160.768c4.608-5.12 10.752-8.192 17.408-8.704 6.656-0.512 13.312 2.048 18.432 6.656l113.152 100.352 143.36-152.064c9.728-10.24 26.112-10.752 36.352-1.024 10.24 9.728 10.752 26.112 1.024 36.352L580.608 601.6c-9.728 10.24-25.088 10.752-35.84 1.536l-112.128-99.84-124.416 141.312c-4.608 5.632-11.776 8.704-18.944 8.704z m-73.216 222.72c-13.824 0-25.6-11.264-25.6-25.6s11.264-25.6 25.6-25.6L824.32 819.2c13.824 0 25.6 11.264 25.6 25.6s-11.264 25.6-25.6 25.6l-608.256 5.632z m604.16-134.656H495.616c-14.336 0-25.6-11.264-25.6-25.6s11.264-25.6 25.6-25.6h324.608c14.336 0 25.6 11.264 25.6 25.6s-11.264 25.6-25.6 25.6z" fill="#1ecfff" p-id="6673"></path></svg>