<?xml version="1.0" standalone="no"?><!DOCTYPE svg PUBLIC "-//W3C//DTD SVG 1.1//EN" "http://www.w3.org/Graphics/SVG/1.1/DTD/svg11.dtd"><svg t="1749624706816" class="icon" viewBox="0 0 1024 1024" version="1.1" xmlns="http://www.w3.org/2000/svg" p-id="18173" xmlns:xlink="http://www.w3.org/1999/xlink" width="128" height="128"><path d="M512.04544 590.593625L1008.17158 92.547493a54.271796 54.271796 0 0 0 0-76.671713 53.759798 53.759798 0 0 0-76.287714 0L512.04544 437.2502 92.207014 15.87578a53.759798 53.759798 0 0 0-76.287714 0 54.271796 54.271796 0 0 0 0 76.671713L512.04544 590.465626zM512.04544 1024l496.12614-498.046132a54.271796 54.271796 0 0 0 0-76.671713 53.759798 53.759798 0 0 0-76.287714 0L512.04544 870.784575 92.207014 449.282155a53.759798 53.759798 0 0 0-76.287714 0 54.271796 54.271796 0 0 0 0 76.671713L512.04544 1024z" fill="#1ecfff" p-id="18174"></path></svg>